<svg width="212" height="212" viewBox="0 0 212 212" fill="none" xmlns="http://www.w3.org/2000/svg">
<path d="M66.25 105.841C66.25 109.349 64.854 112.714 62.3692 115.194C59.8843 117.675 56.5141 119.069 53 119.069C49.4859 119.069 46.1157 117.675 43.6308 115.194C41.146 112.714 39.75 109.349 39.75 105.841C39.75 102.333 44.5151 100.336 47 97.8549C49.4849 95.3743 49.4859 92.6139 53 92.6139C56.5141 92.6139 57.0151 95.3743 59.5 97.8549C61.9849 100.336 66.25 102.333 66.25 105.841ZM119.25 105.841C119.25 109.349 117.854 112.714 115.369 115.194C112.884 117.675 109.514 119.069 106 119.069C102.486 119.069 99.1157 117.675 96.6308 115.194C94.146 112.714 92.75 109.349 92.75 105.841C92.75 102.333 96.5151 100.336 99 97.8549C101.485 95.3743 102.486 92.6139 106 92.6139C109.514 92.6139 109.015 95.3743 111.5 97.8549C113.985 100.336 119.25 102.333 119.25 105.841ZM159 119.069C162.514 119.069 165.884 117.675 168.369 115.194C170.854 112.714 172.25 109.349 172.25 105.841C172.25 102.333 167.985 100.336 165.5 97.8549C163.015 95.3743 162.514 92.6139 159 92.6139C155.486 92.6139 154.985 95.3743 152.5 97.8549C150.015 100.336 145.75 102.333 145.75 105.841C145.75 109.349 147.146 112.714 149.631 115.194C152.116 117.675 155.486 119.069 159 119.069Z" fill="hsl(270, 73%, 53%)"/>
<path d="M66.25 105.841C66.25 109.349 64.854 112.714 62.3692 115.194C59.8843 117.675 56.5141 119.069 53 119.069C49.4859 119.069 46.1157 117.675 43.6308 115.194C41.146 112.714 39.75 109.349 39.75 105.841C39.75 102.333 44.5151 100.336 47 97.8549C49.4849 95.3743 49.4859 92.6139 53 92.6139C56.5141 92.6139 57.0151 95.3743 59.5 97.8549C61.9849 100.336 66.25 102.333 66.25 105.841ZM119.25 105.841C119.25 109.349 117.854 112.714 115.369 115.194C112.884 117.675 109.514 119.069 106 119.069C102.486 119.069 99.1157 117.675 96.6308 115.194C94.146 112.714 92.75 109.349 92.75 105.841C92.75 102.333 96.5151 100.336 99 97.8549C101.485 95.3743 102.486 92.6139 106 92.6139C109.514 92.6139 109.015 95.3743 111.5 97.8549C113.985 100.336 119.25 102.333 119.25 105.841ZM159 119.069C162.514 119.069 165.884 117.675 168.369 115.194C170.854 112.714 172.25 109.349 172.25 105.841C172.25 102.333 167.985 100.336 165.5 97.8549C163.015 95.3743 162.514 92.6139 159 92.6139C155.486 92.6139 154.985 95.3743 152.5 97.8549C150.015 100.336 145.75 102.333 145.75 105.841C145.75 109.349 147.146 112.714 149.631 115.194C152.116 117.675 155.486 119.069 159 119.069Z" fill="hsl(270, 73%, 53%)"/>
<path d="M29.5 211.161L32.5 210.619C56.4044 205.813 69.0498 197.764 75.8423 194.283C85.8428 196.986 96.15 198.348 106.5 198.334C164.21 198.334 211 156.845 211 105.667C211 54.4882 164.21 13 106.5 13C48.7899 13 2 54.4882 2 105.667C2 128.966 11.7054 150.279 27.7331 166.562C20.8884 176.603 21.228 186.204 20.8884 197.248L20.8492 197.394C20.5 201 18.5 203 17.6619 205.826C17.0921 207.748 18.7307 210.261 20.8492 211.161C24 212.5 26.4916 211.762 29.5 211.161ZM49.3208 168.111C47.3491 166.612 43.5 163.742 41.434 162.116C39.5 160.747 38.5 158.751 36.9814 157.216C23.1351 143.131 15.0625 125.1 15.0625 105.667C15.0625 63.4107 54.3022 26.2381 106.5 26.2381C158.698 26.2381 197.938 63.4107 197.938 105.667C197.938 147.936 158.698 185.095 106.5 185.095C97.2922 185.109 88.1225 183.898 79.2255 181.495C76.1163 180.65 78.5 181.212 74.4599 180.1L68.0519 178.102L63.6156 176.603L58.5 174.224C54.0637 171.227 49.3208 168.111 49.3208 168.111Z" fill="hsl(270, 73%, 53%)"/>
</svg>
