<svg width="32" height="32" viewBox="0 0 32 32" fill="none" xmlns="http://www.w3.org/2000/svg">
<path d="M8.53125 15.4969V28.8719L8.54062 15.4969H8.53125ZM25.35 12.7375H15.525L15.825 6.53751C15.8437 6.16563 15.6781 5.81563 15.3687 5.58438C15.1781 5.44376 14.9438 5.37188 14.7094 5.37501C14.0969 5.37813 13.5562 5.79376 13.3906 6.38438C12.2312 10.5844 11.3625 13.7344 10.7812 15.8375V26.625H23.2625C23.5749 26.485 23.8401 26.2578 24.0264 25.9706C24.2127 25.6834 24.312 25.3486 24.3125 25.0063C24.3125 24.7031 24.2406 24.4156 24.0969 24.1531L23.6625 23.3594L24.3469 22.7656C24.5395 22.5988 24.6939 22.3924 24.7996 22.1605C24.9053 21.9287 24.9598 21.6767 24.9594 21.4219C24.9594 21.1188 24.8875 20.8313 24.7437 20.5688L24.3094 19.775L24.9937 19.1813C25.1864 19.0144 25.3408 18.808 25.4465 18.5762C25.5522 18.3443 25.6067 18.0923 25.6063 17.8375C25.6063 17.5344 25.5344 17.2469 25.3906 16.9844L24.9531 16.1875L25.6375 15.5938C25.8301 15.4269 25.9845 15.2205 26.0902 14.9887C26.1959 14.7568 26.2504 14.5048 26.25 14.25C26.25 13.6531 25.9062 13.0781 25.35 12.7375Z" fill="hsl(270, 73%, 53%)" fill-opacity="0.75"/>
<path d="M3.5 16.5V27.875C3.5 28.4281 3.94687 28.875 4.5 28.875H6.53125V15.5H4.5C3.94687 15.5 3.5 15.9469 3.5 16.5ZM27.6844 16.6781C28.2094 15.9844 28.5 15.1344 28.5 14.25C28.5 12.8469 27.7156 11.5156 26.4531 10.7813C26.1281 10.5906 25.7581 10.4903 25.3813 10.4906H17.8844L18.0719 6.65001C18.1187 5.72188 17.7906 4.84063 17.15 4.16875C16.8374 3.83727 16.46 3.57356 16.0412 3.39402C15.6225 3.21447 15.1713 3.1229 14.7156 3.125C13.0906 3.125 11.6531 4.21876 11.2219 5.78438L8.54062 15.4969L8.53125 28.8719H23.2844C23.575 28.8719 23.8531 28.8156 24.1125 28.7031C25.6 28.0688 26.5594 26.6156 26.5594 25.0031C26.5594 24.6094 26.5031 24.2219 26.3906 23.8469C26.9156 23.1531 27.2062 22.3031 27.2062 21.4188C27.2062 21.025 27.15 20.6375 27.0375 20.2625C27.5625 19.5688 27.8531 18.7188 27.8531 17.8344C27.8531 17.4406 27.7969 17.0531 27.6844 16.6781ZM25.6375 15.5938L24.9531 16.1875L25.3906 16.9844C25.5337 17.2458 25.6079 17.5394 25.6063 17.8375C25.6063 18.3531 25.3844 18.8438 24.9937 19.1813L24.3094 19.775L24.7437 20.5688C24.8869 20.8302 24.9611 21.1238 24.9594 21.4219C24.9594 21.9375 24.7375 22.4281 24.3469 22.7656L23.6625 23.3594L24.0969 24.1531C24.24 24.4146 24.3142 24.7082 24.3125 25.0063C24.3125 25.7063 23.9 26.3375 23.2625 26.625H10.7812V15.8375C11.3625 13.7375 12.2313 10.5875 13.3906 6.38438C13.4716 6.0961 13.644 5.84187 13.8817 5.65987C14.1195 5.47786 14.4099 5.37791 14.7094 5.37501C14.9438 5.37188 15.1781 5.44375 15.3687 5.58438C15.6781 5.81563 15.8437 6.16563 15.825 6.5375L15.525 12.7375H25.35C25.9063 13.0781 26.25 13.6531 26.25 14.25C26.25 14.7656 26.0281 15.2563 25.6375 15.5938Z" fill="hsl(270, 73%, 53%)"/>
</svg>
