<svg width="266" height="266" viewBox="0 0 266 266" fill="none" xmlns="http://www.w3.org/2000/svg">
<path d="M36.1896 27.2783L240.411 127.906C241.525 128.455 242.463 129.304 243.118 130.359C243.774 131.413 244.122 132.63 244.122 133.871C244.122 135.113 243.774 136.329 243.118 137.384C242.463 138.438 241.525 139.287 240.411 139.836L36.1763 240.464C35.0321 241.026 33.7505 241.247 32.4841 241.102C31.2176 240.956 30.0198 240.449 29.0332 239.642C28.0465 238.835 27.3127 237.761 26.9191 236.549C26.5255 235.336 26.4887 234.036 26.8131 232.803L53.0008 133.931L26.7998 34.9524C26.47 33.717 26.5034 32.4128 26.896 31.1959C27.2885 29.979 28.0235 28.9011 29.013 28.0913C30.0025 27.2815 31.2044 26.7741 32.4749 26.6299C33.7454 26.4857 35.0305 26.7108 36.1763 27.2783H36.1896ZM43.4115 45.6722L64.8245 126.563L65.6491 126.403L66.5003 126.35H159.6C161.262 126.347 162.865 126.966 164.093 128.086C165.321 129.205 166.085 130.744 166.235 132.399C166.385 134.054 165.911 135.705 164.904 137.028C163.898 138.35 162.432 139.248 160.797 139.544L159.6 139.65H66.5003C66.09 139.652 65.6804 139.616 65.2767 139.544L43.4248 222.083L222.416 133.878L43.4115 45.6722V45.6722Z" fill="hsl(270, 73%, 53%)"/>
</svg>
